<?xml version="1.0" encoding="UTF-8"?>
<svg viewBox="0 0 150 144" xmlns="http://www.w3.org/2000/svg">
 <path d="m25.157 60.133c2.002-9.4615 9.0351-39.382 18.369-40.858 19.179-3.5899 14.324-0.5848 33.731-0.92615 21.445 5.4701 10.995 15.318 23.515 30.219-4.665 44.349-8.607 16-27.576 47.908-15.526 18.78-42.635 8.6397-52.475-3.6838 0.458-9.1886-1.048-0.47964 4.4362-32.66z" fill="#fdfcfb"/>
 <path d="m2.4696 142.82c-3.5781-5.3589-1.4995-12.907-1.4959-19.14 1.597-15.921 4.1412-32.148 11.812-46.417 8.8151-20.439 18-40.977 23.102-62.721-0.2333-5.594 3.2218-14.158 9.0344-7.1354 7.6425 4.6105 12.767-8.0407 20.914-5.839 8.5212 1.3096 12.833 10.383 20.841 12.613 8.0864-1.2407 17.682-3.4774 23.991 3.6783 4.5592 4.665 8.8983 11.381 16.387 10.7 8.4615 0.96149 13.337 8.9151 16.995 15.755 4.8611 2.2111 8.111 6.5775 4.3726 11.977-6.6077 9.745-13.423 19.832-15.7 31.633-1.9744 6.5079 0.28945 15.866-7.2448 19.315-13.456 5.8261-28.157 7.9538-42.075 12.441-25.975 7.4047-51.626 15.902-77.631 23.204-1.0951 0.1986-2.2154 0.13444-3.3023-0.0637zm85.135-77.319c5.9464-3.4328 6.5958-10.216 2.5542-15.815-1.651-3.7586-3.9645-5.9287-6.5157-2.3057-1.9647-2.7281 4.3194-4.1107-1.1432-6.0617-2.6812-1.4662-11.361 2.6756-7.0692-3.3917 1.323-2.8801 7.8772 2.7675 3.6392-1.6065-1.9114-3.8665-12.205-0.39294-10.631-4.5161 6.7977-0.15675-3.1944-8.3774-5.7756-9.035-2.4867 1.7189-8.9944-4.1413-13.136-0.76678 4.731-0.11706 7.3006 4.6433 10.215 6.1589-0.22558-6.8721 13.712 2.6482 4.1944 1.0574-7.6841-2.7965-10.017 8.6355-2.2003 8.9766 3.9268-4.2146 5.3673 8.7871 5.4351 11.94-9.1159-0.6941-2.4188 10.805 3.1061 11.302 4.4574 3.4466 12.191 6.2856 17.328 4.0634z" fill="#e4cfa6"/>
 <path d="m1 135.88c0.07745-19.021 1.9027-38.667 10.828-55.8 7.1929-16.911 14.27-33.901 20.788-51.074 3.2031-7.5236 2.8454-16.822 5.9078-23.834 2.3919 3.9858 2.9017-1.499 5.7986 2.8569 7.2118 5.1382 12.156-6.9409 19.756-6.3188 6.8419 0.49824 11.874 6.1038 14.629 11.269-1.8692 3.8318 5.23 8.039 4.9133 2.2294 7.9874-0.85911 16.882-4.5213 24.235 0.76946 6.2438 3.7118 8.9242 12.757 17.109 13.291 7.9481-1.602 13.397 6.3479 16.998 12.291 1.4642 5.9536 12.132 7.43 6.3547 14.445-9.6286 12.996-17.19 28.386-17.581 44.828-2.4269 7.4752-11.758 8.204-18.133 10.606-25.444 6.5065-50.568 14.156-75.576 22.161-10.816 2.9999-21.47 7.431-32.743 8.1508-3.3164 0.09692-3.4152-3.4883-3.2844-5.871zm79.75-59.897c7.3662-4.142-8.1288 1.2833-2.4068-3.4425 6.5801 0.55832 14.511-2.1612 14.798-9.9153 1.243-8.7844-3.8502-17.161-10.839-22.098-1.856-7.1036-12.201-6.1012-13.581-14.017-4.9781-3.1969-10.291-6.7465-16.911-6.0021-3.4136-0.76947-7.4604 1.6713-1.8087 2.6246 7.2164 0.38573 9.4462 7.6377 2.7162 11.272-3.0666 3.4855 1.0152 4.8985 2.4179 1.167 1.4898 2.575 0.43286 4.4452 3.3654 2.1734 2.6203 5.5208 1.0817 12.611 3.0289 18.63 1.4757 3.1765-1.5718 6.2344-0.69019 1.1518 0.40697-5.2864-7.3988 1.4221-3.3958-3.6065 1.8049-3.117-8.5068-0.3442-10.992-2.4369-3.3638-2.5691-1.3524 5.3596-4.7552 0.18614-1.5187-5.5537-4.3066-9.4805-8.948-3.783-5.3252 5.3712 6.6187 11.68 11.166 8.863 4.5116-3.7943 2.0357 5.7403 7.0648 1.2595 2.4034 1.8838 6.9092-2.4592 3.4694 2.6998 3.7335-1.1657 11.788 4.8596 11.92 10.891 3.128 4.2106 9.5022 5.2633 14.382 4.3826z" fill="#d1b68e"/>
 <path d="m1 138.48c0.29154-16.858 1.4724-34.094 7.261-50.062 10.592-23.429 21.074-47.137 27.625-72.065 0.95745-4.009 0.66498-14.006 5.6699-8.2391 5.3336 0.1803 10.931 9.2226 14.676 8.1495 0.31916-5.4685-7.9001-7.9779-0.64902-9.6322-0.45101-4.2824 6.6409-3.4751 7.402-1.5403 1.6164-8.0896 9.6322 4.4896 12.693 7.0264 3.57 2.5689-2.1644 1.5759 2.9389 4.9526 3.3171 0.97683 8.0485 7.093 8.4198 0.10466 4.3734-5.6847 13.022-4.1966 18.876-1.9288 6.9143 1.759 7.5414 10.227 13.894 12.678 5.7714 2.3896 13.307 0.17577 17.084 6.631 4.7117 5.1229 6.1534 12.657 12.6 15.123 0.55279 8.4167-8.1695 13.581-10.744 21.095-4.5584 8.9139-7.8088 18.673-7.9995 28.745-1.5655 8.1093-10.998 9.3827-17.527 11.65-22.603 5.7978-45.053 12.164-67.223 19.456-13.588 3.9177-26.964 9.11-41.031 10.981-2.0335 0.27771-4.3178-0.72426-3.9674-3.1256zm83.696-64.573c7.2556-4.2592 12.014-13.736 7.7646-21.706-3.6383-6.544-8.9151-12.388-14.491-17.242-6.5831-2.1794-8.2042-9.71-14.302-12.238-5.3681-1.2386-14.259-4.7831-18.256-0.5137 3.8473 3.1732 10.163 0.67217 12.294 5.606-1.1737 4.8116-9.5491-3.6259-10.827 3.511-2.3686 7.5826-9.3894 11.442-14.576 17.034-5.9708 6.5399 0.91419 12.914 7.6964 11.261 2.8006 0.47795 8.1298 1.6153 9.3874 5.0137 3.3438-6.946 11.35 4.1913 12.51 8.5502 5.9729 4.1025 15.433 5.9683 21.711 1.4415l1.0879-0.71783zm-26.286-21.121c-4.196-1.7602-10.32-2.571-14.514-1.8104 0.33143 6.6435-5.8825-4.3007-2.2631-4.9264 2.8323-4.3951 10.808-4.6489 14.234-9.1233 0.1082 3.7371-5.7523 6.5326 0.4717 6.7639 2.7121 2.8796 3.225 7.3904 3.8129 10.808l-0.78429-0.50272-0.95671-1.2086z" fill="#d19f61"/>
 <path d="m1 138.48c0.29041-16.855 1.4653-34.094 7.2918-50.048 8.5135-18.514 16.186-37.422 23.412-56.47 2.9414-7.8412 4.4594-16.081 5.6405-24.328 3.6306-0.00553 9.1343 7.4931 14.534 8.3773 1.7748 4.3508 9.0296 2.8734 4.4043-1.7733-1.2362-3.3084-1.1132-7.0584 1.7661-4.2702-0.0565-1.683-1.2497-9.4359 2.9514-4.97 4.4054 5.2324 0.73286-5.0091 4.7942-0.35315 6.1334 5.505 9.6962 14.148 18.126 16.776 4.0634 2.9476 7.0624 5.2816 6.8718-0.55091 4.8999-0.50541 0.93653-9.6271 7.1376-6.1346 8.1702 0.48549 8.9029 10.264 12.787 15.379 3.3529 1.9992 6.6672 13.154 8.596 4.1602 2.7948-1.0269 3.387-7.1767 7.5922-2.9584 2.4329 6.896 3.996 14.998 9.7154 19.957 4.1949 4.045 10.144-6.4827 12.551 0.64979-1.0678 7.7703-8.6103 12.66-11.105 20.017-4.1757 8.4026-7.0495 17.574-7.275 26.999-0.87763 8.1126-9.2672 9.2725-15.297 11.359-20.427 5.9196-41.131 10.914-61.29 17.756-16.002 4.7083-31.751 10.688-48.236 13.488-2.1723 0.33892-5.3846-0.09379-4.9686-3.0601zm27.261-44.273c5.1456-1.0295-1.7124-8.5413 2.7233-5.491-1.2593-3.8902-9.0156 1.5398-6.6718-5.346 3.1522-1.0967 2.7591-6.1357-0.11514-1.95-0.20675-2.3012 3.4294-7.7823-0.89824-3.8957 0.75006 3.1711-5.7178 9.4011-3.3995 3.0703 3.0057-3.6884 0.2009-6.7492-1.3172-1.3562-3.6431 2.1263-4.2949 10.909-1.3606 3.072 3.8 1.1434-5.6129 10.766 0.79316 9.4684 0.35401 0.11784 5.0193-2.4427 1.5492 1.2589-1.9384 1.4661-10.715 3.0575-3.6227 3.1892 4.1399-0.27566 8.3822-0.63439 12.32-2.0198zm70.522-16.791c2.4452-0.56352 11.664-3.5042 5.5288-4.4066 3.2976-2.1783-6.1747-2.1056-3.1039-6.9155-1.5721-3.6659-8.4246-5.3848-7.8428-11.634-1.4394-6.4874-8.2014-10.803-10.69-15.768-5.0068-4.7032-11.614-7.119-15.052-13.195-5.0856-4.6343-12.946-5.2305-19.712-5.0267-6.915 1.9932 6.1519 7.9033 7.196 4.0267-0.82899 2.6505 5.3559 3.9071 0.10515 4.4074-6.7737-3.319-9.9733 3.2054-11.733 8.8032-5.0421 4.7536-11.528 9.1849-13.479 16.128-0.82358 7.3598 5.338 6.983 10.243 6.066 1.8434 4.2831 9.0202 0.30192 10.464 6.2917 3.9209-0.03791-3.4975-7.2011 1.9168-3.2138 3.8908 3.5337 4.143 9.6038 9.3027 13.233 6.3019 3.2461 12.782 2.0003 19.331-0.10526 5.2296-1.3606 8.9921-7.8025 12.657-9.5697 0.6584 5.2318-2.0045 11.146-5.2355 13.842 3.3662-0.99355 6.7265-2.0084 10.104-2.9634zm-56.783-25.719c-1.4115-3.1043-2.4969-4.869 2.0409-4.3707 2.773-1.4791-4.0524-4.889 1.883-3.9384 3.2631-1.7831 6.8207-4.0201 9.4093-5.5836-2.3304 5.1362-8.6446 8.8059-10.954 12.285-2.3643-1.2469-0.43646 6.7515-2.3795 1.6079zm5.4565-1.2704c0.88641-4.5104 10.855-11.422 8.3347-2.032-0.23553 3.8147-6.1123 3.761-8.3347 2.032z" fill="#b38d5c"/>
 <path d="m1.5435 130.75c1.2493-15.507 0.74653-32.035 8.7493-45.956 7.663-16.98 14.418-34.363 21.348-51.65 3.3229-8.2066 4.3496-17.041 5.9452-25.644 5.6404 2.7814 9.813 7.91 15.378 9.9635 7.8561 7.0482 1.9362-6.367 4.5216-7.3309 3.1401 0.99471-2.5837-9.4654 3.0434-4.8826 2.43 4.8456 3.6553-0.48423 4.6251-1.3625 6.0909 4.6365 8.191 14.198 15.679 16.249 3.7434 0.61265 10.898 10.556 10.047 2.1376-1.5016-2.315 4.8579-1.9418 2.9721-6.1234 6.1395-4.0612 13.706 3.0936 13.72 9.5046 3.5242 5.5494 8.0272 10.897 12.304 15.244-1.6634-4.6186 1.046-8.623 4.7374-10.406 3.829 2.4863 2.056 9.7032 7.3872 11.007-3.5334 2.3338 2.4032 12.955 7.2225 10.657 3.6256-3.9006 12.462-2.8536 8.9105 3.9847-9.5135 10.811-15.561 24.844-17.109 39.145 0.81681 7.1367-5.1788 13.354-11.898 12.761-6.9246 4.6187-15.736 4.8275-23.487 7.4778-8.2283 2.1147-16.357 4.6988-24.581 6.7585-2.2137-1.3954-1.3845-5.9459-2.2278-0.72449-3.9649 4.1798-8.8853 3.7126-13.62 5.4389-3.2291-3.2432-1.6852 4.0224-6.6759 2.7005-14.378 3.9366-28.45 9.0898-43.01 12.287-6.9554 1.2843-3.664-7.5164-3.9806-11.236zm19.456-34.834c5.8462-0.78936 11.458-1.9327 16.542-3.4831 0.48135 0.24864-9.4099-1.8617-3.5416-2.6429 5.6426-0.7994-7.6802-2.0904-6.1896-7.1355-1.2073-5.2101 2.4051-13.193-6.2287-11.761-2.3811-0.95637-2.2389 9.9027-3.9436 4.3834-0.63587 1.8266-6.1328 12.026-2.8904 16.869-4.2406-1.7081-6.7113 8.503-0.37723 4.8337 2.2125-0.33735 4.4203-0.70507 6.6295-1.0635zm73.572-16.91c6.5523-2.0383 13.56-3.8611 19.108-7.9909-3.0927-0.62416-7.7433 0.4043-6.4344-4.4023-2.4162-0.60651-2.916-3.5128-5.0081-3.3257-2.3182-2.9123-4.6564-10.365-7.7618-10.229 3.2246 2.6732 1.2127 5.7231-0.65708 1.001-0.82148-4.4785-8.7395-10.971-7.067-13.266 4.4376 4.4107 2.0206-3.2964-2.1266-1.3628-5.6339-1.7296 8.6256-3.1552 1.4878-3.6737-7.6132-0.07439-14.687-3.5357-18.302-10.319-4.5357-4.3514-12.076-5.4472-18.651-4.8422-8.7928-0.49369 4.4946 7.7858-2.8745 8.523-2.5409 1.9148-0.82394 11.934-5.0357 8.1612-1.5762-3.5597-11.486 0.85769-3.7717-0.10205 2.6092 2.1416 2.9511 4.0746-1.2919 6.1499-1.4531 0.89636-4.728 1.7944-1.8497 1.852-5.0426 5.3961-7.981 13.223-0.41517 17.854 3.5833 7.2 15.079-4.6662 14.882 3.6382 4.2951 4.7508 5.756 10.851 12.364 12.218 9.9882 0.43236 20.87-1.6885 28.822-8.0334 1.3961-3.523 4.6613-6.5442 3.6201-0.3133 0.93249 5.7785-6.6054 9.0914-8.7187 10.779 3.276-0.54061 6.4682-1.4982 9.6821-2.3166z" fill="#a37447"/>
 <path d="m1.6051 132c0.89-16.646 1.373-34.134 9.9935-48.948 1.0584-3.6486 6.8679-9.6041 3.8625-1.9728-0.26941 4.7308-8.5775 13.084-2.9079 15.859 6.7519-0.8824 14.259-1.3058 20.447-3.5113 2.5056 0.56023 7.7162-2.349 1.8313-1.6487-0.59994-1.4754 5.2359-3.1446-0.85076-3.3579-7.2218-2.1177-5.7804-11.641-4.9988-17.464 0.04946-3.7937 2.2937-10.762 5.2653-3.8764 4.5308 2.6719 11.016 3.5151 14.231 8.0353 3.1675 1.8992 4.8652 1.1192 5.613 3.5854 12.118 1.6081 26.218 1.4701 35.761-7.3391 2.287-3.1982 5.1488-4.5247 3.3466 0.68432-0.5548 4.9093-5.5509 7.1081-8.8488 9.4313 9.4443-1.7977 18.742-4.7561 27.444-8.8241 2.3131-0.79539 5.5879-4.3976 5.7298-5.8603-4.0024 2.765-10.268-8.5361-10.774-1.458-4.1463-3.954-1.1804-7.3226-7.4228-9.8348-4.6276-2.3299-9.2635-6.8017-4.9635-12.467-0.85958-3.9768 3.3624-4.4603 3.3597-8.2896 3.2569-4.243-6.9351 0.57049-9.1425 0.50763-5.6366-0.49184-15.481 0.31852-17.03-6.564-5.0807-7.1704-15.051-8.541-23.257-8.0656-8.3985 0.30347 5.6852 8.2608-3.4558 8.9722-1.7631 2.2332-4.8368 8.8787-4.131 1.9061-4.2264-2.502 6.0805-2.7871-0.863-3.5992-3.3589 2.0664-6.5622-1.3555-4.2866-3.9441 2.0778 6.3715 6.0202-2.5356 1.7868-2.7754-2.9334-5.5159-0.50306-17.368 6.5523-9.5093 4.2409 2.5778 9.1717 7.9534 13.746 7.0606 0.89982-3.0049-4.0081-9.6117 1.2821-8.8345-3.6395-6.0412 1.2906-6.0038 4.4693-2.6491 0.4179-7.9358 7.957 2.5734 8.298 5.7164 4.087 5.1093 9.4979 7.2505 15.156 10.793 1.8949 5.1736 7.1272 0.9733 3.6399-3.0449 7.4136 2.2201-0.67774-7.8346 6.4988-5.6304 9.8655-0.46292 9.3787 10.273 13.832 15.886 5.2365 1.5969 4.4668 11.309 9.6122 10.086-1.1517-3.6032-2.2147-6.3055 1.4918-6.7615-0.84695-6.4871 7.4441-2.9305 5.462 2.0641-0.18762 3.8176 8.1884 4.8136 1.9843 6.5934 3.1197 2.6901-0.16962 8.1764 4.905 6.7602 2.4117 8.3571 10.476-4.7092 14.385 1.8573 0.0588 7.4608-8.1589 11.007-10.18 17.924-3.9474 9.2724-7.3186 19.048-7.7625 29.173-2.5865-3.7604-11.366 5.2165-4.8326 2.9171 1.9603-2.447 6.5468 3.3156 1.8948 1.7472-3.4-2.7196-1.5447 6.679-4.4728 1.3862-2.0528-0.54228-9.0609-0.28682-7.0856 1.4099 6.7205 0.68164-7.5246 8.6894-5.2401 0.5044-3.6353 0.50959-1.8566 8.207-8.0868 6.254-3.1867-0.11648-7.6884-3.1552-4.1866 1.2452-2.4622-0.5542-6.1494-3.1777-5.8601 1.5261-4.8215 3.2323-2.5274-4.525-6.4706-0.67491-2.929-5.0075-6.924 9.781-6.6566 0.99988-3.1041-0.16278-5.896 1.6081-2.8 3.48-3.3768 4.3241-10.166-4.1923-8.576 3.5627-3.0344 4.1394-12.093-5.295-10.827 2.0091 5.2586 1.7648-3.5205 3.0439-3.2733-1.0249-5.1662 1.4354 0.36352 5.9406-6.4558 5.5527-3.4924 2.9088-3.8998-3.8929-6.1749 0.93856-2.4007 2.1858-13.031 5.9623-7.6493 0.39385-3.8526-4.5331-4.1687 7.2569-10.026 6.0339-5.6177 1.1758-12.223 4.9971-17.643 2.0585-0.72942 1.6005 0.97222 5.9162-2.792 1.7655-1.1658-2.4632-2.6306 3.0946-2.0762-2.7052 0.00198-2.0162 0.08288-4.0314 0.1817-6.0448zm112.39-69.441c0.0986-5.137 9.005-1.7874 6.1373-8.3067 0.29711-2.5144 5.4809-4.8196-0.1373-5.0331 8.6076-3.8978-5.6323-2.0499-8.3619-4.1159-2.1065-2.0694-9.2134-2.9583-3.55 0.24339 6.6728 1.5826-0.61927 6.6731 3.8199 8.7489 0.26936 6.9408-7.5504 2.4243-4.0897-2.339-1.7504-3.087-2.9126 0.05974-1.41 1.6813-2.8327 0.75057-5.2746-5.6834-4.1693 0.2474 1.6133 5.2998 6.142 6.905 9.7338 10.293 1.0123 1.2704 2.4408-0.24931 2.0272-1.4191zm-97.989 11.691c2.9798-12.517 10.648-23.261 14.037-35.662 0.29703-3.362 5.786-13.781 7.7363-7.434 0.11721 4.2694-10.981 6.063-3.5972 7.0399 4.4642-4.2266 6.2911 4.8671 0.58482 2.6712-6.2878-0.96185 5.568 2.3815-0.94212 2.7735-3.3957 5.4724-6.0208 12.429-8.508 18.377-0.19083 1.967-7.9598 4.2486-3.3219 5.4264-2.7823 1.4046-1.9466 7.1654-5.9892 6.809z" fill="#ab6e34"/>
 <path d="m1.5843 133c0.70769-11.238 1.3476-22.516 3.0154-33.657 6.4394-2.2035 15.446-1.2428 22.772-3.2091 12.032-1.6838 24.203-3.7032 35.666-7.78-1.9853-1.0691-11.138 2.1922-15.9 1.6662-5.1068-0.69552-16.399 0.22489-15.453-7.0118-6.7985-2.6436-2.1828-11.441-1.6366-17.245 1.6896-5.2935 4.6269 4.1735 7.9532 2.7678 4.1827 3.182 9.4135 3.2492 12.395 7.9686 5.5673 5.9068 14.889 3.2982 22.122 2.0134 7.3263-1.7877 15.172-4.037 20.342-9.8102 0.8054 7.9411-7.057 11.237-13.433 12.749-3.6565 2.6637-12.138 3.2645-13.566 5.7384 13.508-2.8846 26.822-6.8458 39.949-11.139 3.8934-2.2186 14.391-4.2639 12.674-9.6119-6.3053-1.0715-2.8494-7.9622 1.6035-8.1779-1.3419-3.7273 1.973-6.2819 2.4059-8.5403-6.3274-0.01899 4.578-1.9946-0.9974-3.4393-5.356 1.9816-11.788-3.4559-15.318-2.5556 3.438 2.557 6.7601 9.8573 1.8249 12.356-0.13022-1.4748 1.5014-8.1317-2.9058-5.7249-0.73613 4.5007-2.4462-5.9147-5.2765-0.85805 0.22126-0.71977 2.0748-8.7923-0.81127-3.3279-5.0764 9.4915-7.8351-6.5145-0.47106-5.478 5.7429 2.1893 6.2003-8.3967 0.62599-3.1467-3.2284 4.7459-0.24338-5.1643-0.23381-4.5457-8.7184 0.81668-19.407 5.0545-26.511-2.2927-2.7154-5.5156-7.9228-8.3153-12.752-10.741-1.6386-3.8756 4.6078-2.4456 0.7466-5.3256-0.14285-3.3752-2.1492-9.5373 2.838-4.3353 3.6214 3.3637 0.39667-9.9946 3.4954-3.0571 3.4547 4.393 7.1942 7.9851 9.9973 12.721 2.244 2.592 5.1329 4.9489 7.7254 3.4763 2.2274 5.9081 15.417 4.7221 9.6612-2.447 4.7374-1.7616 10.392-5.9094 11.166 2.6084 2.4927 5.0857 0.84713 12.544 7.6349 12.898 2.3579 4.4249 9.744 6.9652 9.0175-0.43856-1.0531-2.343 2.3963-5.3148 1.3318-1.6783 4.8809-1.113 2.982 9.167 6.8785 11.883 0.63463 4.7442 7.0936 5.3434 2.8421 9.4156-1.0197 4.2101 7.9395-5.2986 3.422 0.2496-2.4646 5.8815 7.1436-2.466 2.1359 3.4661 1.8652 3.6094 0.0952 1.4371-1.5704 3.3895 3.0776 5.9164-2.2978 13.138-4.0152 19.304-1.7138 4.0273-1.2177 15.281-3.2422 15.782-6.5324-1.1373-5.625 9.222-12.756 6.6882-2.6245 1.9952 0.39658 8.3781-5.5806 5.5471 1.1967-5.2883-3.9738-3.4143-3.0435 1.0002-3.1988 5.0531-13.805-2.968-10.026 3.2069-3.4482-2.8165-5.1451-1.5218-6.1717 1.7603-4.4325 2.5853-1.6715-5.5638-5.4214-0.9147-3.1691-5.6317-7.2245 9.6312-7.0145 0.81243-3.1041-0.16278-5.896 1.6081-2.8 3.48-3.1086 4.5158-9.8276-4.1262-8.6274 3.0635-4.3714 6.1666-10.134-6.8023-11.093 2.1064 5.4924 2.1655-2.6572 3.5928-2.9557-0.6231-5.1662 1.4354 0.36352 5.9406-6.4558 5.5527-3.4924 2.9088-3.8998-3.8929-6.1749 0.93856-2.4007 2.1858-13.031 5.9623-7.6493 0.39385-3.8526-4.5331-4.1687 7.2569-10.026 6.0339-5.6177 1.1758-12.223 4.9971-17.643 2.0585-1.081 1.2949 1.392 5.7581-2.4892 2.1391-0.89064-5.9909-2.7141 3.296-2.3629-2.971-0.00257-1.7186 0.06047-3.4364 0.14471-5.1526zm140.11-71.861c0.68771-3.6621-0.68252-6.132-2.5064-8.4759 2.9157 0.62304 4.1735-1.6437 5.3625 0.83656 1.3803-1.05 1.5904-5.238 4.1078-1.0567-0.01 3.2086-3.9121 9.2207-6.9639 8.6961zm-119.69-0.90346c1.0519-4.4536 5.2749-16.136 9.8154-12.662-2.0094 4.5524-6.4258 11.134-9.8154 12.662zm17.934-34.037c-1.7227-2.8847 0.54754-4.1938-3.7235-5.6542 0.38245-3.7992-0.25753-16.732 5.1466-9.0129 4.7099 2.4272 7.4365 7.4995 12.143 7.9684-5.6633 0.69622-11.61 2.0055-5.3631 7.0698-1.8284 2.3669-6.3596 1.773-8.2029-0.37106z" fill="#8c5626"/>
 <path d="m11.529 138.59c-0.89552-3.3976-3.8039-2.6427-4.1414-0.38529-2.536-2.7602-4.2854 1.9857-4.4674-2.2562-1.8249-5.68 1.9009-11.678-0.41803-15.65 1.6773-6.9991-0.19418-15.496 3.504-21.597 7.2444 0.9938 14.248-2.0643 21.494-2.2964 25.82-2.6794 50.293-11.876 75.154-18.78 9.0011-2.8986 17.13-8.0217 24.15-14.272 2.5965-0.49181 8.2018-3.6908 1.84-4.6038-3.89 0.23305-6.8349-0.4996-4.6942-5.0736-7.074 5.3014 4.9081-13.442-5.3898-7.6964-6.3535 1.816-13.093-9.5417-16.257-0.47862-2.305-4.0259 6.2435-9.9239-1.7137-9.0366-5.3738 1.738 2.794-6.3107-3.4097-4.3209 0.3524-3.6505-7.9803-0.06273-6.4051 1.4212-7.3191 2.4081-18.17 0.77207-21.158-7.3087-2.0881-3.6324-14.06-5.7794-7.043-10.135-2.3551-3.0084-3.4014-9.4677 1.5706-4.1662 1.7986-2.5466 0.39806-10.706 3.3585-2.5795 4.9851 1.6623 2.851 8.8509 8.9248 10.468 0.6335 3.4312 1.3777 5.815 2.9252 2.7736 1.0216 5.4851 4.7829-1.2103 5.719 4.2298 4.4358 1.4357 14.735 2.9815 11.449-4.7774 3.5 0.62162 3.2659-5.3915 5.2826-1.7291 1.1039-6.3542 2.3752 3.3391 0.95177 5.3272 0.85046 2.8345 2.7368-2.1725 2.7031 2.6935 1.7314 5.5868 3.8582 12.434 11.374 12.791 6.1578 5.6526 4.4122-10.897 8.755-2.6558 1.6885 5.5262 3.5461 12.082 9.1898 13.892-2.679 1.1625-2.8853 9.1998 3.0267 6.9528-5.2704 1.9917-4.0345 9.1699-1.2986 13.129-3.9901 6.2751-4.292 13.936-7.2649 20.445-0.42838 2.0193 3.9168 0.54182 0.18459 3.6474-2.2064 1.8226-4.1221-2.9021-4.8142 2.2752-2.7584 5.4649-8.1162 5.391-13.608 6.7309-4.2738 1.1394-14.823 6.8611-15.435 4.9773 0.20295-6.6376-5.1301 11.112-5.018 3.6166 0.50852-4.8001-10.829 0.39057-9.4414 4.3368-1.7541-1.2791-1.0126-8.8077-4.5005-6.2129 2.6435 5.3762-4.8614 4.3214-7.6088 4.2091-2.3001-2.2987-7.3753 1.7928-2.9977 1.9448-4.521 1.4374 2.3282 6.3079-2.5425 4.3995-2.0323-2.7701 0.44721-4.5411-2.8586-2.5775-3.4007-4.1429-5.907 8.0106-9.8912 3.5562 3.2909-1.2187 4.4096-2.0751 4.4701-5.7573 1.1133-3.8826 11.159 0.60069 5.533-3.9624-4.8276-3.1121-6.5568 1.0408-8.8665 3.6687-1.6954-3.39-7.7041-1.879-8.4344-4.901 6.0657 0.60405-0.4921-9.4297 4.17-3.0685-0.76727 4.1118 5.5209 3.4197 5.1834 5.8509-2.3898-5.8084 3.2938-4.658 5.7016-4.2055-0.54851-3.8462-7.9868-4.9571-1.0848-7.5079 3.8273-1.549 6.6026 6.4975 1.8317 1.5689-4.066 0.26379 3.8445 11.273 3.0913 3.5199 6.3972-7.5717-4.3398 7.5786 2.907 4.6591 7.1708 0.1237 2.5549-10.437 6.8357-12.34 1.9152-1.5407 6.1595-7.2771 4.2934-7.0938-0.98909 1.7848-5.0512 5.0145-5.2156 5.1879 2.578-5.2873-7.5633-6.6597-1.6306-1.7408 0.61274 3.1276-6.6061 8.6805-5.5242 2.8028-1.1536-2.7813-2.0541-5.604-4.2144-1.376-3.0055-2.3903-7.62-3.4603-2.5677 0.65744 3.28 3.7494-4.5055 3.3051-3.3802-0.19058-6.1012-1.2206 1.942 9.0668-3.7848 2.5965-0.44653-2.6876-2.5674-7.0264-3.2832-1.8271 0.97068 5.521-7.795-4.374-4.0493 0.3726-1.5129 4.7614-11.844 1.0947-13.002 6.3878-1.4148-6.3612-7.5486-0.77802-3.9319 3.0783-1.8685 5.2711 5.6719 7.0688 3.1227 2.301 2.6242 1.4636-0.15498 14.583 4.5151 9.5808-1.6162-5.7346 5.095-5.9927 6.5513-1.2329 1.6732-0.20375 6.4384 4.0137 3.3594-0.0628-5.8142 0.12526-4.2603-7.9908 0.24021-3.8945 3.4087-0.58468 9.6852 6.2023 2.9109 8.0697-3.0443 6.2351 4.789-1.0956 3.2311 3.9397-6.131 1.3962-9.8206-5.6494-13.381-9.0536-2.2622 3.3101 8.1035 8.9479 0.78378 6.1023-0.97202 2.4505-10.349 1.3735-5.2043 5.4337-4.0098-1.9194-3.8788 6.7404-5.2774-0.21663-3.0497-0.0619-5.2687 4.8059-0.90183 5.0326-4.0368 0.56704-6.1585-4.7146-9.6065-0.77719-6.8771-3.359-1.4741 8.6925-4.5692 3.1713zm6.4707-23.651c-2.1454-1.2001-4.0015-5.1591 0-5.382 2.3756-4.9863 4.9126 9.649 5.9766 1.8783-1.0262-7.6156-10.123-0.77151-13.753-5.7838 1.7711 5.6858-1.4584 2.3741-3.7632 2.8485 0.92738 3.9473 7.5394 0.64982 7.6486 6.3041 0.77964 1.4232 4.0258 3.1456 3.8911 0.13489zm13 3.259c2.5429-4.0926 0.71757-8.5418-2.6355-7.9865 1.4279-2.1206 5.0439-1.6795 5.6355-4.7135 2.1832 1.792 2.838 6.0362-0.89271 4.9371 2.7662 2.4845 0.9482 7.963-1.9946 9.4959l-0.08705-0.69748-0.02566-1.0355zm7.7472-29.545c-5.0835-3.9695-11.698-10.438-9.6146-17.87-0.0093-8.0664 7.306-5.1329 6.2325 1.3001 5.3076 1.0879 10.296 5.4761 16.359 6.2508 13.709 3.4905 29.885 1.592 40.721-8.0825 0.26852 1.6129-3.7768 6.1155-3.6952 7.1675-6.6225 1.4204-12.672 5.866-19.644 7.1704-8.9632 2.5114-18.222 5.552-27.626 4.8941l-1.3328-0.34258-1.4-0.48813zm-15.732-29.405c1.4944-3.2843 3.4545-13.758 7.7365-11.222 0.03162 5.0525-6.2164 8.2587-7.7365 11.222zm18.547-32.85c-1.6482-1.1272-3.8092-2.2511-0.50412-3.5029-6.709-1.8535-5.2811-9.3426-1.8294-13.835-0.1621 5.0123 7.599 5.0055 9.301 9.3538 10.107 1.8372-8.6827 1.0565-2.0293 6.0845 4.7833 3.2222-4.1372 3.5539-4.9382 1.9z" fill="#894f1a"/>
 <path d="m11.529 138.59c-2.2612-6.453-4.1544 2.9534-6.0842-2.7434-2.9608-7.202 9.1397 0.0855 9.3452-7.8542 3.5581 0.94125 10.184-9.5807 7.6064-0.95015-3.3295 0.46668 0.81403 2.7719 1.98 0.62627 2.568 0.78523 11.186 3.5692 4.517 4.213-1.3266 6.483-1.7899-4.8914-5.3292 1.0694-1.7945 2.8373 4.764 4.0792-0.89009 3.0719-2.6448-4.5874-7.2546-0.0135-10.512 0.62855 0.65604 1.3276 0.70762 6.2244-0.6331 1.9386zm32.971-10.401c-3.5871-0.67786-5.9883-9.8391-0.65494-5.108 3.1239-0.77373 2.972-4.0246 6.1549-0.58323-2.9769 0.0365-6.1 7.9521-1.7477 4.2466 5.2712 1.2027-1.7808 4.2584-3.7523 1.4446zm35.315-11.441c-2.6789-4.2179 5.2069-5.261 1.3454-7.0457 7.0424 0.96796-5.1048-6.0596 2.4831-4.0018 3.3272 3.4193 6.1369 4.0685 6.4996-0.35483 5.9834 1.601 0.98358-8.1394 5.8462-7.1171-0.20488 6.222 2.2467-0.66931 0.48905-2.7216 5.6018 1.3618-0.42724-12.631-0.85853-3.6675-3.0632-2.0844-4.0676 7.4454-4.9135 0.28197-1.966-1.9067-2.3175 5.7302-5.6033 1.1265-4.5049 0.05753 7.5266 5.5802 3.0322 6.4344-1.8819-2.9654-10.159-5.642-5.175-0.69077-2.387 0.79935-3.2686 3.0195-4.4865 4.3683-1.2563-2.2172-0.69541-15.735-2.7543-7.8619-3.1908-2.6512-2.1148-5.9722 2.2342-4.3346 1.2824 3.9541 2.4183 1.6532 5.0465 1.3032-5.7956-4.5743 1.7262-9.8779 7.208-8.0479 5.0694-1.8412 10.483-2.2104 14.054-5.569 6.7754-2.309 12.301-7.6248 18.539-11.166 2.9115-2.0988 6.5206-5.5996 9.0271-7.5002-3.1648-3.043-11.279 0.5186-7.8789-6.5082-7.074 5.3014 4.9081-13.442-5.3898-7.6964-6.6019 1.7235-11.66-8.3521-16.17-2.0585-1.4337-3.37 5.5539-8.5977-1.8-7.4567-5.3738 1.738 2.794-6.3107-3.4097-4.3209-1.0758-4.9669-8.1646 2.9761-11.621 2.1674-8.2557 1.1474-14.398-3.9078-18.312-10.433-3.058-1.5573-10.122-4.3-4.6294-7.7815-3.3721-4.0573-1.124-6.3736 2.324-4.4292 0.4339-8.4613 6.1634 3.2671 7.9983 6.1331 3.3524 5.3844 8.0803 10.322 15.116 10.219 5.8561 1.6797 8.5222-2.5018 10.484-6.6133 6.818-4.2066 2.1262 7.2303 6.0294 6.9819 1.1001 6.763 7.8737 14.538 15.644 12.949 2.6314-1.2815 2.0112-8.3407 5.1463-2.3869 1.6726 6.7675 7.1796 11.673 7.8182 18.745 0.58729 7.8916 4.472 15.827-0.72679 23.094-2.2474 5.1652-3.2963 12.624-2.0455 14.821-3.6014 1.0478-5.203 0.27696-6.8954 4.6711-3.0346 4.4951-9.8881 4.1821-15.059 6.0962-3.9115 3.082-9.8688 2.1784-13.204 5.7573 1.8794-7.841-3.0924 1.9638-4.118 4.1543-1.6497-1.2117 1.227-6.517-3.7857-3.5436-4.2153-0.20409-5.7368 3.839-6.5359 5.6147l-0.40479-0.37597-0.58642-1.2359zm-41.875-30.75c-0.93403-3.6361-0.95847 4.1396-2.8751-1.1622-5.9739-4.544-8.955-13.393-3.4203-19.532 4.9756 0.38231 1.4721 8.2996 7.0795 7.5612 5.4164 4.2076 12.83 5.372 19.462 6.7538 10.601 1.2091 21.591-0.86582 30.833-6.2306-1.2248 5.535-10.553 6.8098-15.664 9.2344-10.521 3.6163-21.942 7.148-33.132 5.0367-0.88147-0.30183-1.887-0.73708-2.2841-1.6613zm3.6224-59.6c-3.6159-1.346-1.2979-2.3851-1.0024-4.6062-3.8473 0.37594-1.7562-7.052-4.2892-2.0598-1.2842-4.5518 2.8662-10.462 5.5173-4.5065 3.631-0.13031 13.226 5.9476 4.374 5.5741-3.7403 2.3088 6.1353 7.0732-1.6588 6.4985-0.70923-0.21818-2.7967 0.23805-2.941-0.9z" fill="#774b20"/>
 <path d="m104.25 105.74c3.1074-2.8886 6.4712-6.053 8.1383-9.1112 0.10624 6.4993 8.275-3.5999 1.4025-2.4299 0.45515-3.1327-6.9272 2.9949-4.3501-2.4827 2.3873-1.7347 4.3768-7.2104 4.8531-0.80549 2.9715 1.2041 2.1653-7.0271-1.7548-6.0084-1.175-8.813-4.8562 8.2151-5.2056-0.44717 0.0151-2.718 2.9448-3.3021 4.1076-4.7093 4.7906 3.6464 1.2433-4.0366 5.2751-4.2636-1.7007-5.9117 6.4302-3.0077 7.159-7.984-0.36905 2.3392 4.6284 9.4276 2.521 2.4319 0.24077-1.7235 5.1711-3.0317 0.30345-3.312-2.0811-1.9122 8.2048-6.586 4.4137-0.92947-3.1072 3.3908 5.5953-0.41466 1.9714 4.5516-1.5695 3.0221-1.141-4.793-2.8791 0.89805-1.1025 3.7147 6.047 0.51731 2.9388 5.7015-4.5422 6.0438-0.6001 14.074-7.5258 18.504 0.6979 5.557-5.7663 2.9334-6.9524 6.5093-0.23624 0.87509-9.9582 4.9049-4.1006-0.1704-1.2259-3.78-4.3643 2.4968-6.4892 1.3899 3.4331 3.5022-9.9186 6.2468-3.8263 2.6674zm-58.687-19.545c-1.0289-3.7328-9.1514-0.22652-11.29-4.8487-6.1212-1.8369-7.2157-14.027-2.0703-15.743 1.7472 7.9706 9.6147 11.679 17.426 12.81 10.167 2.1976 20.743 2.1779 30.943 0.2553-6.202 3.6112-13.291 6.0202-20.435 7.1426-4.4211 0.62881-12.675-0.07313-14.574 0.38395zm83.437-28.814c-4.9637 0.37867-1.8048-2.2872-3.2177-5.1371-2.7971 1.2729-7.0244 2.3077-2.6338-1.3764 4.0018-5.5188-2.9234-7.5374-6.8322-4.7908-2.4219-0.1884-10.715-6.2895-3.582-5.2504 4.8014 1.8313 10.082 2.2706 11.015-2.8881 3.0291 6.2945 7.0431 12.863 9.0756 19.588-0.45359 1.4387-3.5145 1.3022-3.825-0.14485zm-24.032-19.943c-1.8346-3.2575-8.2859 0.24301-4.8271-4.8811-3.2234-4.5876-4.3724-12.019 2.4184-11.756 0.0811 2.4253-4.515 4.6919-0.55938 6.0613 0.71351 2.6403 8.9766 12.471 3.4752 11.356l-0.5072-0.77978zm-29.043-5.0851c-4.5298-1.2534-6.9701-8.3015-7.6385-10.192-4.339 2.0564-9.3977-3.5605-5.5156-6.5171-2.916-3.5424-0.38546-5.3086 1.8846-1.3584 0.45616-3.2138 1.8059-9.4499 3.4734-2.6269 3.2878 3.2446 5.265 9.0124 9.0401 12.852 3.0688 4.2345 8.1583 4.1644 12.337 3.9977 2.3794 0.82156 10.457 0.20284 3.27 2.1556-5.1636-1.9451-2.6417 5.4042-8.326 3.7079-2.9344-0.12104-5.8406-0.83432-8.525-2.0183zm-32.925-6.8551c-1.4353-1.644-4.0828-0.70676-1.127-2.8441-4.3655-0.91849-6.1272-12.368-1.0135-6.5594 3.4746-0.57412 7.2703 3.2378 8.4922 4.2877-7.2388-1.4154-2.9668 3.9662-2.1654 6.0795-1.2505-0.09617-3.4467 0.43367-4.1863-0.96369z" fill="#623316"/>
 <path d="m47 82.599c-6.1619-0.46061-11.489-4.2117-15.517-7.708-3.1458-2.8626-0.27277-13.505 2.1284-5.3908 3.8995 7.5768 13.511 9.0494 21.124 10.441 2.9087 1.1353 13.81-0.29394 12.517 2.043-6.6565 1.0681-13.544 1.277-20.252 0.61436z" fill="#24160f"/>
</svg>
