<?xml version='1.0' encoding='utf-8'?>
<svg xmlns="http://www.w3.org/2000/svg" width="3677.7556" height="3677.7551" viewBox="0 0 24 24" version="1.1" id="svg4919"> <defs id="defs4913"> <marker orient="auto" refY="0" refX="0" id="Arrow2Lstart" style="overflow:visible"> <path id="path7099" style="fill:#ff0000;fill-opacity:1;fill-rule:evenodd;stroke:#000000;stroke-width:0.625;stroke-linejoin:round;stroke-opacity:0.99438201" d="M 8.7185878,4.0337352 -2.2072895,0.01601326 8.7185884,-4.0017078 c -1.7454984,2.3720609 -1.7354408,5.6174519 -6e-7,8.035443 z" transform="matrix(1.1,0,0,1.1,1.1,0)"/> </marker> <linearGradient id="linearGradient7077"> <stop style="stop-color:#ff0000;stop-opacity:1;" offset="0" id="stop7075"/> </linearGradient> <linearGradient id="linearGradient5555"> <stop style="stop-color:#ccf5cc;stop-opacity:1;" offset="0" id="stop5553"/> </linearGradient> <filter style="color-interpolation-filters:sRGB" id="filter4058-9" x="-0.10382871" width="1.2076575" y="-0.19885218" height="1.3977044"> <feGaussianBlur stdDeviation="12.857236" id="feGaussianBlur4060-4"/> <feBlend mode="overlay" in2="BackgroundImage" id="feBlend4062-2"/> </filter> <filter style="color-interpolation-filters:sRGB" id="filter4712-9" x="-0.055546861" width="1.1110938" y="-0.15368098" height="1.307362"> <feGaussianBlur stdDeviation="7.3446635" id="feGaussianBlur4714-4"/> </filter> <filter style="color-interpolation-filters:sRGB" id="filter4236-9" x="-0.36987817" width="1.7397563" y="-0.17371231" height="1.3474246"> <feGaussianBlur stdDeviation="5.5427538" id="feGaussianBlur4238-9"/> </filter> <filter style="color-interpolation-filters:sRGB" id="filter7406"> <feTurbulence type="fractalNoise" numOctaves="5" baseFrequency="0.143" id="feTurbulence7388"/> <feColorMatrix values="1 0 0 0 0 0 1 0 0 0 0 0 1 0 0 0 0 0 5 -3" id="feColorMatrix7390"/> <feComposite operator="in" in2="SourceAlpha" id="feComposite7392"/> <feMorphology operator="dilate" radius="2.7" result="result3" id="feMorphology7394"/> <feTurbulence numOctaves="2" baseFrequency="0.121" result="result91" id="feTurbulence7396"/> <feDisplacementMap in="result3" xChannelSelector="R" yChannelSelector="A" scale="10" result="result4" in2="result91" id="feDisplacementMap7398"/> <feFlood flood-opacity="1" flood-color="rgb(255,255,255)" id="feFlood7400"/> <feComposite result="result2" operator="in" in2="result4" id="feComposite7402"/> <feComposite in="result2" operator="over" in2="SourceGraphic" id="feComposite7404"/> </filter> <filter y="-0.15000001" height="1.3" x="-0.15000001" width="1.3" style="color-interpolation-filters:sRGB" id="filter7432"> <feTurbulence type="fractalNoise" baseFrequency="0.04" numOctaves="5" seed="0" result="result4" id="feTurbulence7418"/> <feDisplacementMap yChannelSelector="G" xChannelSelector="R" scale="10" result="result3" id="feDisplacementMap7420" in="SourceGraphic" in2="result4"/> <feDiffuseLighting lighting-color="#e9e6d7" diffuseConstant="1" surfaceScale="2" result="result1" in="result4" id="feDiffuseLighting7424"> <feDistantLight azimuth="235" elevation="40" id="feDistantLight7422"/> </feDiffuseLighting> <feComposite operator="in" in="result3" result="result2" id="feComposite7426" in2="result1"/> <feComposite result="result5" operator="arithmetic" k1="1.7" id="feComposite7428" in2="result1" k2="0" k3="0" k4="0"/> <feBlend in="result5" mode="normal" id="feBlend7430" in2="result3"/> </filter> <filter style="color-interpolation-filters:sRGB" id="filter920"> <feTurbulence type="fractalNoise" numOctaves="3" baseFrequency="1" seed="0" result="result0" id="feTurbulence910"/> <feColorMatrix result="result4" values="0" type="saturate" id="feColorMatrix912"/> <feComposite in="SourceGraphic" in2="result4" operator="arithmetic" k1="1.25" k2="0.5" k3="0.5" result="result2" id="feComposite914" k4="0"/> <feBlend result="result5" mode="normal" in="result2" in2="SourceGraphic" id="feBlend916"/> <feComposite in="result5" in2="SourceGraphic" operator="in" result="result3" id="feComposite918"/> </filter> </defs> <metadata id="metadata4916"> </metadata> <g id="layer5" transform="translate(79.279433,91.958192)"/> <g id="layer1" transform="translate(79.279433,588.70821)"> <g id="g89" transform="matrix(1.5867746,0,0,1.5867746,-260.55951,177.50542)"> <path d="m 574.35156,-101.53516 c -116.96413,4.2e-4 -211.78189,94.8190678 -211.78125,211.78321 7e-5,19.58354 2.66864,38.542 7.64649,56.54101 2.0824,0.20765 4.30779,0.61321 6.69531,1.28711 1.10493,0.31189 -0.0314,-0.009 1.58984,0.38086 2.83181,0.67892 5.37621,2.04848 7.74805,3.69922 1.99049,1.44923 3.67944,3.23622 5.25195,5.11719 1.61598,1.96272 2.90965,4.14544 4.04102,6.41406 1.16995,2.37008 1.94728,4.89253 2.58398,7.44922 0.53727,2.4164 0.81738,4.87807 1.04493,7.33984 0.13057,-0.0246 0.26791,-0.0378 0.4121,-0.041 1.47136,-0.0325 3.6655,1.07072 6.86914,3.75 0.69907,0.58462 0.96952,0.78479 1.57618,1.26172 0.67615,0.51997 1.30722,1.09238 1.9375,1.66601 7.50911,6.83442 10.01527,13.97691 9.21093,19.59961 3.33752,3.73102 4.91578,9.00847 6.17969,13.87891 0.13977,0.53857 0.015,1.51519 -0.22656,2.65429 0.49237,0.59783 0.98199,1.19836 1.48242,1.78907 1.2224,1.44295 2.06484,2.7443 2.59766,3.92773 0.33121,0.11492 0.65746,0.22115 0.99414,0.3457 h 0.002 c 0.23433,0.0867 1.08258,0.46942 1.80274,0.79493 1.86281,0.83015 3.57436,1.9367 5.23437,3.11132 1.6585,1.19014 3.25368,2.46291 4.80469,3.78907 1.72154,1.5282 3.35431,3.15332 4.96484,4.79687 1.91879,1.88831 3.65319,3.94398 5.31445,6.0586 0.3156,0.42759 0.63176,0.85557 0.94727,1.2832 5.84839,7.92591 7.0217,15.19238 5.37695,20.49804 33.26014,21.73957 72.99854,34.38852 115.69922,34.38868 116.96417,6.8e-4 211.78279,-94.81708 211.78321,-211.78125 6.8e-4,-116.9649359 -94.81828,-211.78389 -211.78321,-211.78321 z m 1.42969,150.992191 c 13.03253,-0.212409 33.13547,4.496952 45.05273,13.503907 16.45452,12.436153 22.79461,32.147966 22.88086,50.144532 0.0714,14.88843 -8.76696,30.44966 -21.32422,42.10156 -12.18708,11.30842 -29.89808,18.93362 -44.3457,18.6875 -15.84782,-0.26986 -34.57096,-9.73496 -46.88867,-23.04101 -11.26224,-12.16585 -14.81661,-27.54148 -14.73633,-42.03321 0.0699,-12.60093 4.41793,-28.829221 13.95508,-39.572263 11.64223,-13.114318 30.0258,-19.540471 45.40625,-19.791016 z M 395.88477,220.32227 c -0.41171,0.67437 -0.84105,1.31816 -1.30469,1.89648 0.76347,1.22311 1.53472,2.44023 2.32226,3.64648 0.41225,-0.52844 0.9096,-1.05968 1.45899,-1.59179 0.0762,-1.06979 0.0617,-2.27197 -0.004,-3.54688 -0.7683,-0.0801 -1.59309,-0.21549 -2.47265,-0.40429 z" style="display:inline;opacity:1;fill:#631e00;fill-opacity:1;stroke:#150000;stroke-width:1.6507045;stroke-miterlimit:4;stroke-dasharray:none;stroke-opacity:1;filter:url(#filter920)" transform="matrix(1.2065054,0,0,1.2065054,-272.09537,-309.2689)" id="path815-7-5"/> <path d="m 420.86289,-431.77162 c -106.95923,3.9e-4 -198.55075,65.72856 -236.63294,158.99008 0.59371,0.38847 0.96837,1.43617 1.01092,3.47106 h 0.002 c 0.01,0.52028 -0.0837,1.03257 -0.15081,1.54584 -0.0364,0.28486 -0.0597,0.56944 -0.0825,0.85539 -0.0538,0.55716 -0.11015,1.11557 -0.16024,1.67308 -0.0876,0.89204 -0.22496,1.77639 -0.3841,2.65809 -0.16963,0.89996 -0.36158,1.79514 -0.55142,2.69107 -0.22676,1.09253 -0.49159,2.1764 -0.77056,3.25662 -0.2923,1.12554 -0.61544,2.24308 -0.93786,3.36031 0.0947,0.0641 0.1899,0.12757 0.28513,0.19087 0.68765,0.43065 1.29562,0.96593 1.87809,1.52698 0.67948,0.6749 1.25352,1.44371 1.80033,2.22685 0.53066,0.75894 0.98556,1.56493 1.41388,2.38474 0.45327,0.86195 0.83647,1.75586 1.18294,2.66515 0.36844,0.98525 0.6211,2.00696 0.83419,3.03511 0.207,1.03467 0.29328,2.0879 0.3676,3.1388 0.0753,1.11095 0.0374,2.22258 -0.0401,3.33203 -0.0807,1.12974 -0.27106,2.24756 -0.49956,3.3556 -0.25035,1.13325 -0.6024,2.24063 -0.98029,3.33674 -0.40311,1.17045 -0.94451,2.28315 -1.5152,3.37915 -0.58492,1.10778 -1.26174,2.16119 -1.97001,3.193 -0.7081,1.02923 -1.48461,2.00779 -2.2669,2.98092 -0.78997,0.97208 -1.6161,1.91448 -2.45778,2.84188 -0.55719,0.60863 -1.12566,1.20706 -1.69665,1.80269 -0.55077,0.57455 -1.10266,1.01502 -1.64953,1.39738 0,0 -0.002,0.002 -0.002,0.002 -0.26103,0.49164 -0.54915,0.96886 -0.87896,1.42095 -0.68274,0.91666 -1.42866,1.78855 -2.34231,2.48606 -0.87748,0.65416 -1.81129,1.22478 -2.83718,1.60946 0.93584,0.47621 2.09104,0.29091 3.56768,-1.24657 0.0369,-0.0383 0.0828,-0.57192 0.0613,-0.23329 -0.0141,0.23694 -0.0239,0.47448 -0.0329,0.71165 -0.0333,0.57593 -0.11087,1.14988 -0.19558,1.72022 -0.10859,0.65993 -0.24893,1.31281 -0.41474,1.96057 -0.20793,0.75665 -0.45682,1.50089 -0.72343,2.23863 -0.32841,0.9116 -0.75816,1.77915 -1.223,2.62745 -0.45007,0.80362 -0.94522,1.58042 -1.45157,2.34938 -0.52525,0.79194 -1.07685,1.56722 -1.63303,2.33761 -0.57617,0.76954 -1.13894,1.54858 -1.70135,2.32818 -0.45757,0.63122 -0.89809,1.27425 -1.34083,1.9158 -0.25212,4.63544 -0.39591,9.30097 -0.39589,13.99971 6e-5,15.7332 1.43194,31.13068 4.15443,46.07813 6.64241,-1.45259 12.97109,-2.31445 19.02603,-2.30697 15.3493,0.0189 28.93837,5.62277 41.42178,21.33771 14.61897,18.403332 2.35933,15.52893 9.75573,17.117294 5.04164,10.49381 7.82779,14.010279 8.80136,26.319252 0.0405,0.511655 0.0565,1.024661 0.066,1.536412 1.93801,1.48989 4.00175,3.154047 5.88407,4.689349 -0.38397,-0.34751 -0.51991,-0.525518 -0.1296,-0.33933 1.94461,0.927646 3.6895,1.908583 5.30439,2.870168 6.20952,0.03402 12.99844,-1.387723 18.29316,1.696648 29.9347,17.437961 25.87206,20.665049 29.74083,46.726157 L 305.93622,2.2923343 C 303.44279,20.763136 295.22955,33.116122 285.0156,40.17471 324.36899,64.928038 370.93916,79.261069 420.86292,79.26125 561.98083,79.26207 676.38,-35.136069 676.38051,-176.25397 676.38133,-317.37281 561.98174,-431.77238 420.86292,-431.77156 Z m 1.72493,182.17289 c 15.72382,-0.25627 39.97812,5.4256 54.35636,16.29254 19.85247,15.00428 27.50182,38.78669 27.60588,60.49965 0.0862,17.96297 -10.57738,36.73768 -25.72779,50.79576 -14.70371,13.64367 -36.07219,22.843515 -53.50332,22.546569 -19.12048,-0.325587 -41.71005,-11.745279 -56.57144,-27.799099 -13.58795,-14.67817 -17.87632,-33.22895 -17.77946,-50.7133 0.0843,-15.20307 5.33026,-34.78261 16.83688,-47.74415 14.04641,-15.82249 36.22629,-23.57568 54.78289,-23.87797 z m -244.30792,4.82603 c -1.30577,1.31869 -2.77933,1.99515 -4.18742,2.07368 -0.15885,0.59139 -0.30949,1.18605 -0.46423,1.77912 2.09316,1.06548 3.96408,3.56365 4.70114,7.67262 0.18911,1.05413 0.10279,0.54302 0.25685,1.53406 0.13313,0.95646 0.22684,1.91812 0.29456,2.88194 0.0109,-0.0208 0.0242,-0.0404 0.0353,-0.0613 0.36657,-0.69554 0.7187,-1.40144 0.98028,-2.14437 0.25472,-0.73293 0.49506,-1.47117 0.67394,-2.22685 0.15112,-0.70901 0.27377,-1.42564 0.32991,-2.14909 0.0516,-0.68556 0.0784,-1.37247 0.0376,-2.05954 -0.0443,-0.64957 -0.0877,-1.30245 -0.20265,-1.94408 -0.1145,-0.56136 -0.23946,-1.11927 -0.43595,-1.65894 -0.21509,-0.57814 -0.46043,-1.1452 -0.74699,-1.69194 -0.24752,-0.48014 -0.50872,-0.95338 -0.81769,-1.39738 -0.14322,-0.2084 -0.30018,-0.40741 -0.4548,-0.60796 z m 83.31721,186.92115 c -0.0439,-0.0024 -0.0902,0.0036 -0.13431,0.0024 5.68854,3.605702 8.1461,6.19333 4.05781,2.094892 -1.05178,-1.563498 -2.43307,-2.025469 -3.9235,-2.097244 z" style="display:inline;opacity:1;fill:#784421;stroke:#150000;stroke-width:1.99158394;stroke-miterlimit:4;stroke-dasharray:none;stroke-opacity:1" id="path4463"/> <path d="m 420.86289,-431.77162 c -76.60219,0.0871 -164.67388,42.16191 -216.20011,98.38911 -9.39717,10.25453 -17.60305,23.64585 -24.32334,38.25235 0.0127,0.27269 0.0282,0.5439 0.0282,0.82947 v 0.71636 c -0.0264,-0.53334 0.0877,0.69558 0.0919,0.73521 0.0613,0.59213 0.10774,1.18402 0.18381,1.77442 0.10532,0.78372 0.19965,1.57059 0.28748,2.35645 0.10847,0.8961 0.20985,1.79126 0.30633,2.68872 0.0865,0.93132 0.20501,1.85881 0.33226,2.78533 0.15546,1.08841 0.30087,2.17994 0.43832,3.27076 0.07,0.56566 0.12546,1.13275 0.18851,1.699 3.8987,0.45725 7.06158,0.41968 3.62659,-4.03189 -0.22254,-0.2882 0.36207,0.46664 0.43593,0.56319 0.35067,0.46502 0.69787,0.93106 1.02743,1.41152 0.52057,0.76473 0.95869,1.58063 1.36909,2.4083 0.42271,0.86618 0.7757,1.76336 1.10754,2.6675 0.4063,1.08377 0.71425,2.19721 0.95907,3.32732 0.29412,1.41971 0.36016,2.86305 0.30635,4.3076 -0.0671,1.34025 -0.33196,2.65413 -0.68573,3.94471 -0.17282,0.62045 -0.4114,1.21986 -0.65038,1.81683 -1.65807,4.14245 -4.23928,6.20382 -6.66878,6.63813 -0.0282,0.21732 -0.0504,0.43565 -0.0801,0.65274 -0.17788,1.30064 -0.40503,2.59336 -0.63389,3.8858 2.48262,0.87091 4.70711,3.68714 5.12528,8.60342 0.0474,0.55821 0.0923,1.11733 0.10364,1.67779 0.01,1.02596 -0.0135,2.05413 -0.12253,3.07518 -0.1081,0.86327 -0.23995,1.72387 -0.45244,2.56853 -0.1426,0.56898 -0.30444,1.13312 -0.49014,1.68958 0.0723,0.15557 0.15209,0.30727 0.2215,0.46423 0.5493,1.24599 0.82129,2.5754 0.99207,3.91878 0.16096,1.41788 0.0884,2.83881 -0.0989,4.24869 -0.19198,1.30429 -0.5654,2.57042 -0.99679,3.81275 -0.4519,1.28357 -1.06078,2.49794 -1.74848,3.669 -0.68351,1.13498 -1.49443,2.18226 -2.34467,3.19535 -0.89731,1.07796 -1.91244,2.04624 -2.955,2.98092 -0.19065,0.16179 -0.38198,0.32364 -0.57262,0.48543 -1.93679,1.64388 -3.81666,2.55131 -5.51175,2.9008 -0.23353,1.07558 -0.46369,2.15188 -0.70459,3.22598 -0.39877,1.80974 -0.81169,3.61583 -1.22535,5.42221 -0.43275,1.91922 -0.90249,3.8282 -1.41151,5.72854 -0.54221,1.97829 -1.09021,3.956 -1.65188,5.92884 -0.28049,0.98872 -0.56032,1.9772 -0.84598,2.96442 -0.0571,0.19704 -0.12229,0.3791 -0.1838,0.56792 17.2131,21.80657 27.47926,-35.6704 37.07413,-23.98637 9.66797,11.77311 27.378,-38.64027 47.33648,-37.51713 34.42191,1.93705 -18.81621,106.85876 19.49967,121.50828 26.32888,10.06652 65.68386,-53.25826 65.68386,-53.25826 12.46677,-54.44674 -34.87963,-102.99051 20.97615,-103.04592 7.58323,106.93271 102.32309,-28.60055 114.78708,25.83423 0,0 23.41753,164.926699 92.89546,79.44798 36.56671,-44.98799 28.03853,165.5078876 50.84525,166.3233646 22.80676,0.8154649 55.80519,-88.9580806 62.9103,-123.2355746 7.1051,-34.27749 -4.52911,-71.52786 -4.52911,-71.52786 -13.69001,-130.0182 -123.31492,-228.72958 -254.05184,-228.76003 z" style="display:inline;opacity:1;fill:#28170b;stroke:#150000;stroke-width:1.99158394;stroke-miterlimit:4;stroke-dasharray:none;stroke-opacity:1" id="path827-1-7"/> <path transform="matrix(1.2065054,0,0,1.2065054,-272.09537,-309.2689)" id="path909-0-3" d="m 725.79102,69.986328 c 0.12183,8.461011 3.33614,17.335374 1.17508,3.547032 l -0.51856,-1.740534 z m 1.61914,12.626953 c -4.63602,15.361477 -24.39897,16.206918 -37.57977,13.810006 -11.45592,-1.239841 -20.14888,-14.063642 -28.76176,-0.51058 -4.36685,5.882893 -32.48018,16.645293 -12.94382,14.330083 21.55327,4.07094 15.03978,33.54992 4.35022,36.93886 -2.9588,10.60654 -23.8192,8.86654 -31.72116,16.31642 -8.73855,11.91208 -26.27483,18.29713 -38.69688,22.65586 -4.78054,0.5368 -36.24229,5.55554 -41.48868,-7.35541 -14.28855,-6.82514 -19.48298,-29.56909 -35.04211,-22.1166 -17.6216,1.78648 -35.93891,-9.76896 -43.48368,-25.54668 -3.09619,-6.24956 -3.42779,-28.77265 -7.73405,-11.01453 -9.9518,3.92487 -26.89276,5.75044 -24.38761,20.31396 -2.27185,33.2874 18.53142,64.77249 47.90782,79.33122 47.2487,24.11351 104.36492,22.73152 153.62194,5.48097 42.39678,-14.77195 81.47838,-47.26085 92.84614,-92.1389 4.36928,-16.41576 5.10775,-33.664772 3.1134,-50.494679 z M 474.29297,117.87305 c 0.80851,13.95678 14.42637,22.80999 26.91441,25.30892 6.48854,-0.60254 -12.27589,-9.25371 -15.11859,-13.87823 -4.14074,-3.58606 -8.10211,-7.38418 -11.79582,-11.43069 z m 178.18206,29.3086 z m -19.02151,15.26289 c -0.1682,-0.0994 -0.15345,0.34274 0,0 z m -13.13516,1.40312 c -0.44573,-0.0473 -0.49114,1.27855 0,0 z" style="display:inline;opacity:0.51799999;fill:#502d16;stroke:#150000;stroke-width:1.18944633;stroke-miterlimit:4;stroke-dasharray:none;stroke-opacity:1;filter:url(#filter4058-9)"/> <path d="m 573.60547,-78.300781 c -6.78752,-0.0038 -14.3187,0.0239 -22.75195,0.04883 -17.17081,2.225918 -38.82577,7.710274 -55.54102,17.597656 -4.97461,2.942578 -14.88242,6.676269 -12.55078,11.964844 5.95396,13.504681 29.44835,-2.033051 44.17187,-3.054688 10.3316,-0.71689 20.63872,-2.012895 30.99414,-2.158203 15.81278,-0.221888 31.8781,-1.048264 47.40235,1.966797 13.9315,2.705721 27.29286,8.186434 40.10742,14.285156 14.58713,6.942328 29.9341,13.807606 41.41211,25.175782 22.82663,22.608203 48.95818,51.750994 50.85547,81.875 19.56696,38.994257 8.43073,101.380547 13.17383,131.376947 C 767.92587,170.3806 770.50397,125.22965 765.51953,73.001953 763.68939,53.825412 726.0243,-4.5310557 724.08789,-7.4257812 711.01093,-23.62863 687.1566,-51.390792 661.91211,-63.058594 632.23486,-76.775188 621.11812,-78.274111 573.60547,-78.300781 Z" style="display:inline;opacity:0.76599995;fill:#f4e3d7;stroke:none;stroke-width:0.90378404;stroke-miterlimit:4;stroke-dasharray:none;stroke-opacity:1;filter:url(#filter4712-9)" transform="matrix(1.2065054,0,0,1.2065054,-272.09537,-309.2689)" id="path4433-9"/> <path d="m 685.44531,193.21484 c -0.41754,1.7876 -0.74885,3.63274 -0.98437,5.52735 -2.68166,16.87409 -28.46243,15.53491 -34.2168,29.84375 -6.52907,15.86758 -23.45662,15.2044 -33.73828,25.48242 -12.20846,8.43721 -25.94811,15.31829 -41.16016,12.5 -15.09132,-0.19935 -30.50192,-2.71543 -45.22265,-10.39453 -10.95702,-5.4902 -22.30625,-9.342 -33.14453,-15.05078 -5.23584,-3.34312 -14.04211,-10.46824 -19.88672,-9.64649 -2.65665,0.37353 -4.70177,2.38937 -5.52149,7.14844 4.51608,17.31764 21.77093,21.75164 33.53516,28.25391 19.08984,8.52719 38.93689,12.34206 58.31445,12.46484 39.33523,-1.02058 77.9041,-11.54173 111.26563,-33.35937 12.60922,-9.90538 24.38753,-21.57084 34.79101,-34.74805 0.60472,-0.91347 1.19004,-1.85135 1.76563,-2.80078 -2.76086,-1.87592 -5.94922,-4.25325 -8.36719,-6.10352 -2.89561,-0.42026 -8.17524,-3.929 -10.59766,-5.22851 -0.10567,-0.0565 0.14209,0.21149 0.21289,0.3164 -1.71286,-0.95438 -3.42776,-1.91085 -5.14062,-2.86523 -1.10006,-0.77276 -1.26761,-0.89681 -1.9043,-1.33985 z m 14.68555,7.26368 c 0.004,0.006 0.0325,0.0302 0.0898,0.0723 0.27807,0.20375 0.7496,0.46633 1.23828,0.73242 -0.4977,-0.30471 -1.35305,-0.84627 -1.32812,-0.80468 z" style="display:inline;opacity:0.18699999;fill:#f4e3d7;stroke:none;stroke-width:0.88789493;stroke-miterlimit:4;stroke-dasharray:none;stroke-opacity:1;filter:url(#filter4712-9)" transform="matrix(1.2065054,0,0,1.2065054,-272.09537,-309.2689)" id="path4729-9"/> <path transform="matrix(-1.3745819,-0.25728589,0.59817511,-0.59123248,1147.8807,305.48234)" id="path3951-8" d="m 667.1543,505.23828 c -5.17717,3.14843 -4.53501,11.106 -6.09501,16.46043 -0.32691,6.17669 3.65595,12.18729 3.50936,18.68075 -0.0496,6.9195 4.12537,13.13657 3.71928,19.81495 0.75816,8.21761 5.59114,15.38846 10.67691,21.61418 5.27077,0.2529 -2.39041,-12.59944 -1.41993,-20.19981 -6.4818,-18.62934 -2.53247,-16.58627 0.33794,-30.58007 -1.67982,-5.10666 0.65339,-12.18179 -3.72517,-15.96337 -2.4959,-3.01308 -3.26053,-8.09572 -7.00338,-9.82706 z" style="opacity:0.58300003;fill:#f2f2f2;stroke:none;stroke-width:0.91039038;stroke-miterlimit:4;stroke-dasharray:none;stroke-opacity:1;filter:url(#filter4236-9)"/> <path id="path4240-1" transform="matrix(-0.47229009,-1.1731545,0.71660765,-0.58474654,227.8232,940.03502)" style="opacity:0.58300003;fill:#f2f2f2;stroke:none;stroke-width:0.91039038;stroke-miterlimit:4;stroke-dasharray:none;stroke-opacity:1;filter:url(#filter4236-9)" d="m 667.1543,505.23828 c -2.09883,-0.22284 -4.28693,4.11791 -6.51172,19.15625 5.05142,10.62001 2.77358,21.34761 7.93359,31.97656 -1.47549,6.2124 2.231,15.73916 10.38867,25.4375 0.61748,-0.88562 1.08458,-1.55526 1.75586,-2.52148 1.44866,-2.08513 5.11227,0.43471 7.61719,0.0195 1.67853,-0.27742 3.09297,-1.42405 4.67383,-2.05273 1.82989,-0.72775 2.72032,-1.05487 3.5957,-1.37696 -1.97409,-1.11679 -4.08822,-2.24999 -6.41601,-3.40429 -6.29561,-13.68989 -5.72317,-26.06626 -11.62305,-39.70704 -1.44341,-0.76384 -1.51704,-15.69269 -2.96094,-16.45703 -2.51121,-0.67191 -5.38561,-10.74461 -8.45312,-11.07031 z"/> <path style="opacity:0.58300003;fill:#f2f2f2;stroke:none;stroke-width:0.91039038;stroke-miterlimit:4;stroke-dasharray:none;stroke-opacity:1;filter:url(#filter4236-9)" d="m 661.80602,491.99771 c 0.22267,11.42436 1.74385,17.56367 -0.9078,25.40887 -0.32691,6.17669 0.32414,11.72721 0.17755,18.22067 -0.0496,6.9195 0.32361,9.70968 -0.0825,16.38806 0.75816,8.21761 3.2005,10.29334 8.28627,16.51906 5.27077,0.2529 6.50799,-0.60152 7.47847,-8.20189 -1.32371,-12.84584 -1.74559,-15.30997 1.12482,-29.30377 -1.67982,-5.10666 2.16817,-8.81169 -7.10593,-29.96969 -6.7102,-10.15297 -9.04401,-12.81259 -8.9709,-9.06131 z" id="path4288-6" transform="matrix(-1.7094325,0.16851173,0.66390968,-0.49948715,1200.912,-115.37427)"/> <path style="opacity:0.58300003;fill:#f2f2f2;stroke:none;stroke-width:0.91039038;stroke-miterlimit:4;stroke-dasharray:none;stroke-opacity:1;filter:url(#filter4236-9)" d="m 670.35728,513.31894 c -3.65851,1.09962 -5.24832,6.43317 -6.24381,12.51675 -0.90434,5.52651 -1.12376,5.88598 -1.27035,12.37944 -0.0496,6.9195 0.1063,10.42549 0.27749,17.66866 0.18294,7.73977 -0.62264,19.37345 3.80418,19.86773 5.15711,0.57582 7.88852,-17.0725 8.10545,-15.59926 -0.86653,-2.12393 3.8925,-17.54537 2.85261,-29.12355 -0.43575,-4.85169 -0.73206,-11.30298 -3.72517,-15.96337 -1.22838,-1.91263 -2.80716,-2.04493 -3.8004,-1.7464 z" id="path4290-0" transform="matrix(-1.1854203,0.20770816,0.34172876,-0.5903845,823.83075,-58.723447)"/> <path id="path4753" d="m 180.06257,-25.618651 c -1.62501,0 -3.25002,0 -4.87502,0 -0.20315,0 -0.4167,-0.06421 -0.60938,0 -0.43092,0.143641 -0.78785,0.465733 -1.21876,0.609369 -0.1927,0.0642 -0.40625,0 -0.60937,0 -0.60938,0 -1.26234,-0.226313 -1.82813,0 -0.53343,0.213364 -0.77013,0.859852 -1.21876,1.218753 -0.57189,0.457516 -1.24222,0.779325 -1.82812,1.218761 -0.22983,0.172369 -0.37037,0.450028 -0.60939,0.609369 -0.37793,0.251941 -0.96681,0.231467 -1.21875,0.609383 -0.0233,0.03511 0,2.932194 0,3.046883 0,0.523043 -0.11883,3.299731 0,3.65627 0.0908,0.272507 0.4809,0.352444 0.60937,0.609369 0.28728,0.574526 0.27889,1.277339 0.60938,1.82813 0.29558,0.492656 0.8125,0.812509 1.21875,1.218766 1.66078,1.6607643 2.92187,1.8749941 4.87502,3.0468829 0.24633,0.1477903 0.40625,0.4062522 0.60939,0.6093692 0.81249,0.4062523 1.59406,0.8813882 2.4375,1.2187659 0.3772,0.1508911 0.8125,0 1.21876,0 0.59863,0 3.25322,0.1343382 3.65625,0 0.43092,-0.1436407 0.79704,-0.440726 1.21877,-0.6093829 0.5964,-0.2385803 1.37392,-0.1551775 1.82814,-0.609383 0.28728,-0.2872357 -0.12859,-0.8333437 0,-1.2187521 0.0907,-0.2725068 0.51852,-0.3368487 0.60935,-0.6093784 0.1286,-0.3854129 0,-0.8124999 0,-1.2187526 0,-0.812499 0,-1.625008 0,-2.437504 0,-0.406252 0,-0.812509 0,-1.218761 0,-0.203103 -0.11263,-0.440361 0,-0.609369 0.31875,-0.478045 0.90006,-0.740725 1.21876,-1.218752 0.11263,-0.16904 0,-0.406253 0,-0.609383 0,-0.609383 0,-1.218752 0,-1.828135 0,-0.406253 -0.12859,-0.833344 0,-1.218753 0.0907,-0.272506 0.51857,-0.336848 0.6094,-0.609378 0.11765,-0.353128 0.0228,-3.596921 0,-3.656265 -0.74438,-1.860954 -1.71192,-0.826883 -3.0469,-1.828122 -0.36339,-0.272507 -0.15518,-1.218766 -0.60938,-1.218766 -1.09387,0 -1.95302,1.218766 -3.04688,1.218766 -5.44096,0 -1.98917,-2.356992 -5.4844,-0.609383" style="fill:#502d16;stroke:#000000;stroke-width:1.20650542px;stroke-linecap:butt;stroke-linejoin:miter;stroke-opacity:1"/> <path style="fill:#502d16;stroke:#000000;stroke-width:1.70625627px;stroke-linecap:butt;stroke-linejoin:miter;stroke-opacity:1" d="m 232.04218,86.383266 c 2.68731,-1.996194 5.37453,-3.99232 8.06184,-5.988515 0.33562,-0.249296 0.76152,-0.488 1.00776,-0.748596 0.55085,-0.582957 0.77886,-1.141852 1.33007,-1.724969 0.24715,-0.261107 0.67215,-0.499199 1.00776,-0.74855 1.00777,-0.748596 2.34212,-1.466079 3.02321,-2.245719 0.64205,-0.735007 0.30643,-1.267494 0.64478,-1.952852 0.43138,-0.873659 1.17768,-1.817305 1.65228,-2.701319 0.18605,-0.346699 0.10579,-0.622968 0.32194,-0.976255 0.342,-0.558671 1.33837,-1.274116 1.32998,-1.724915 -0.002,-0.04104 -3.29818,-1.096224 -3.42713,-1.139116 -0.58825,-0.195579 -3.51478,-1.37983 -4.1126,-1.366939 -0.45691,0.0096 -1.19171,0.458975 -1.69313,0.520741 -1.12131,0.138077 -1.89834,-0.134703 -3.06406,0.06512 -1.04279,0.178798 -2.25758,0.694341 -3.38636,1.041513 -4.61456,1.419284 -6.94099,2.88829 -11.48907,4.849477 -0.57365,0.247427 -1.12888,0.3472 -1.69322,0.520773 -1.80066,0.846221 -3.6275,1.628652 -5.4018,2.538582 -0.79345,0.40689 -1.34375,0.998161 -2.01553,1.497187 -0.98998,0.735371 -5.53103,3.946095 -6.04641,4.491392 -0.55085,0.582957 -0.82263,1.143986 -1.33006,1.724978 -0.71775,0.821757 -2.09761,1.745804 -2.33784,2.47357 -0.1523,0.460434 1.15004,0.153581 1.37084,0.455637 0.15686,0.213181 -0.4788,0.762978 -0.32194,0.976232 0.2207,0.302147 0.91383,0.303788 1.37083,0.455637 0.91392,0.303743 1.82784,0.607523 2.74167,0.911307 0.45691,0.151939 0.91392,0.303743 1.37092,0.455637 0.22892,0.07574 0.68127,0.02645 0.68583,0.227636 0.009,0.570869 -0.65482,1.382393 -0.64479,1.952856 0.004,0.201508 0.45692,0.151895 0.68583,0.227682 0.68583,0.227682 1.37084,0.455637 2.0563,0.683474 0.45691,0.151849 1.15003,0.153582 1.37083,0.455637 0.15687,0.213181 -0.4788,0.762997 -0.32194,0.976255 0.20247,0.276611 4.00808,1.372776 4.11259,1.36693 3.32417,-0.218653 3.76111,-1.793811 7.09503,-3.059445 0.90745,-0.344464 1.62729,0.265165 2.3786,-0.29289 1.80896,-1.343724 1.85885,-2.85476 3.6679,-4.198553 8.99774,-6.683722 5.94061,-1.56229 9.75507,-6.509292" id="path4845"/> <path style="fill:#502d16;stroke:#000000;stroke-width:0.93009275px;stroke-linecap:butt;stroke-linejoin:miter;stroke-opacity:1" d="m 140.01859,101.3814 c 0.70055,1.13391 1.4011,2.26781 2.10165,3.40172 0.0875,0.14177 0.14008,0.31519 0.2627,0.42522 0.27429,0.24601 0.62673,0.37242 0.90102,0.61838 0.12266,0.10999 0.17515,0.28346 0.2627,0.42523 0.2627,0.42522 0.4047,0.96703 0.78812,1.27564 0.36147,0.29097 0.86201,0.20994 1.27665,0.38632 0.52857,0.22481 1.01589,0.57002 1.53935,0.81151 0.20533,0.0947 0.43703,0.0871 0.63831,0.19317 0.31829,0.16776 0.55947,0.58647 0.90106,0.61835 0.0319,0.003 1.80737,-1.11664 1.87805,-1.16032 0.32239,-0.19918 2.0852,-1.17366 2.2537,-1.39238 0.12859,-0.16717 0.009,-0.46978 0.11308,-0.65726 0.23029,-0.41925 0.66709,-0.68106 0.86413,-1.12141 0.17602,-0.39389 0.15048,-0.87636 0.22572,-1.31455 0.3078,-1.79132 -0.10397,-2.75287 -0.22344,-4.562033 -0.0137,-0.228183 0.0752,-0.438172 0.11309,-0.657272 -0.0999,-0.72166 -0.1441,-1.447966 -0.2996,-2.164984 -0.0698,-0.320706 -0.35021,-0.566956 -0.5254,-0.850439 -0.2581,-0.417698 -1.31967,-2.321219 -1.57626,-2.551277 -0.27406,-0.246013 -0.61529,-0.388331 -0.90102,-0.618389 -0.40402,-0.325312 -0.68797,-0.899596 -1.16376,-1.04357 -0.30096,-0.09106 -0.45824,0.407073 -0.75122,0.464124 -0.20702,0.04058 -0.43092,-0.233565 -0.63831,-0.193163 -0.29321,0.05705 -0.50081,0.309443 -0.75121,0.464128 -0.50083,0.309398 -1.00165,0.618836 -1.50247,0.928252 -0.25039,0.154721 -0.50082,0.309397 -0.75123,0.464123 -0.12518,0.07734 -0.2229,0.246287 -0.37561,0.23206 -0.43206,-0.04013 -0.8446,-0.345969 -1.27665,-0.386325 -0.15276,-0.01414 -0.25043,0.154721 -0.37565,0.232059 -0.37566,0.232059 -0.75123,0.464123 -1.12685,0.696187 -0.25039,0.154722 -0.45823,0.407074 -0.75123,0.464129 -0.20707,0.04058 -0.4312,-0.23361 -0.63832,-0.193163 -0.2684,0.0524 -2.22694,1.353875 -2.25369,1.39238 -0.82618,1.228104 0.22832,1.509448 0.18668,2.822269 -0.0114,0.357323 -0.68434,0.572401 -0.48853,0.889346 0.47158,0.763288 1.5932,0.898658 2.06477,1.661948 2.34563,3.79662 -0.59529,2.2856 1.98871,4.059" id="path4847"/> <path id="path4849" d="m 186.64708,22.458216 c -2.38895,-1.11497 -4.77785,-2.229936 -7.1668,-3.344907 -0.29868,-0.139354 -0.6291,-0.345513 -0.89591,-0.418108 -0.59686,-0.162428 -1.03959,-0.10862 -1.63664,-0.271185 -0.26721,-0.07282 -0.5975,-0.278891 -0.89581,-0.418108 -0.89591,-0.418108 -1.91343,-1.076019 -2.68759,-1.254339 -0.72987,-0.168128 -0.91332,0.26895 -1.48168,0.293757 -0.72455,0.03146 -1.62789,-0.129687 -2.37742,-0.124215 -0.29412,0.0021 -0.42955,0.163522 -0.7405,0.147152 -0.4918,-0.02599 -1.36235,-0.448661 -1.63659,-0.271139 -0.0228,0.01687 0.74616,2.71889 0.77529,2.825188 0.13316,0.484967 0.66472,2.978036 0.93039,3.390271 0.20292,0.315279 0.79672,0.656784 1.05094,0.983154 0.5685,0.72984 0.73535,1.375895 1.36103,2.113223 0.55979,0.659561 1.4013,1.31091 2.1019,1.966326 2.86419,2.679491 4.77261,3.743417 7.94219,6.170141 0.39991,0.306069 0.70069,0.655476 1.05094,0.983168 1.29792,0.934225 2.56775,1.910977 3.89353,2.802557 0.59285,0.398728 1.19455,0.557522 1.79177,0.836262 0.88009,0.410767 4.8168,2.356701 5.37508,2.508659 0.59691,0.162428 1.05979,0.138396 1.63668,0.271184 0.81597,0.187919 1.98042,0.798879 2.53255,0.68932 0.34929,-0.06904 -0.40128,-0.860922 -0.31008,-1.130055 0.0638,-0.190563 0.67661,0.04332 0.7405,-0.147152 0.0912,-0.269087 -0.20657,-0.753338 -0.31008,-1.130096 -0.20657,-0.753352 -0.4136,-1.506772 -0.62021,-2.260106 -0.10351,-0.376749 -0.20657,-0.753397 -0.31008,-1.130137 -0.052,-0.188648 -0.27725,-0.485442 -0.1555,-0.565246 0.34702,-0.225129 1.1344,-0.06954 1.48169,-0.293803 0.12266,-0.07948 -0.10352,-0.376749 -0.1555,-0.565269 -0.1555,-0.565274 -0.31008,-1.13006 -0.46521,-1.695137 -0.10352,-0.376704 -0.40128,-0.860928 -0.31008,-1.13006 0.0638,-0.190563 0.67666,0.04332 0.7405,-0.147152 0.0834,-0.24656 -0.88173,-3.319563 -0.93038,-3.39027 -1.56783,-2.23628 -2.72717,-1.941343 -4.94453,-3.785698 -0.60356,-0.502053 -0.53812,-1.236499 -1.20598,-1.548236 -1.60814,-0.750548 -2.561,-0.209898 -4.16923,-0.960514 -7.99878,-3.733175 -3.52398,-3.550295 -8.21771,-4.328043" style="fill:#502d16;stroke:#000000;stroke-width:1.31534982px;stroke-linecap:butt;stroke-linejoin:miter;stroke-opacity:1"/> </g> </g> </svg>